# xmcd
#
# Track frame offsets: 
#        150
#        35436
#        82603
#        98786
#        129639
#        152213
#        179861
#        205455
#        221236
#        246376
#        258533
#        297506
#        334265
#
# Disc length: 4779 seconds
#
# Revision: 1
# Processed by: cddbd v1.5.2PL0 Copyright (c) Steve Scherf et al.
# Submitted via: ExactAudioCopy v1.1
#
DISCID=cf12a90d
DTITLE=Various Artist - Trail Of The Wolf - vol.03 - Various Of The B
DTITLE=lues  CD2
DYEAR=2017
DGENRE=Blues
TTITLE0=Julian Sas - Make Up Your Mind
TTITLE1=Jimmy D'lane - Bleeding Heart
TTITLE2=Krokus - Quinn The Eskimo
TTITLE3=Joe Bonamassa - Reconsider
TTITLE4=Dave Meniketti - Until the Next Time
TTITLE5=Blindside Blues Band - I Can`t Wait Much Longer
TTITLE6=Rick Derringer - Talk To Me 
TTITLE7=Simo - Please Be With Me
TTITLE8=Pristine - Don't Save My Soul
TTITLE9=Gentlemen's Blues Club - This Long
TTITLE10=Gugun Power Trio - Wounded Heart
TTITLE11=Stoney Curtis Band - Behind The Sun
TTITLE12=Too Slim and the Taildraggers - My Body
EXTD=
EXTT0=
EXTT1=
EXTT2=
EXTT3=
EXTT4=
EXTT5=
EXTT6=
EXTT7=
EXTT8=
EXTT9=
EXTT10=
EXTT11=
EXTT12=
PLAYORDER=
